HIERARCHY
ROOT Hips
{
	OFFSET 0.000000 0.000000 0.000000
	CHANNELS 6 Xposition Yposition Zposition Xrotation Yrotation Zrotation
	JOINT LeftUpLeg_virtual
	{
		OFFSET 0.000000 0.000000 0.000000
		CHANNELS 3 Xrotation Yrotation Zrotation
		JOINT LeftUpLeg
		{
			OFFSET 11.394100 -6.187798 -0.413800
			CHANNELS 3 Xrotation Yrotation Zrotation
			JOINT LeftLeg
			{
				OFFSET 0.430247 -32.302673 3.732800
				CHANNELS 3 Xrotation Yrotation Zrotation
				JOINT LeftFoot
				{
					OFFSET -0.430247 -48.264931 -6.423300
					CHANNELS 3 Xrotation Yrotation Zrotation
					JOINT LeftToeBase
					{
						OFFSET 4.230900 -16.068199 23.438400
						CHANNELS 3 Xrotation Yrotation Zrotation
						JOINT LeftToe_End
						{
							OFFSET 4.510700 0.695400 19.974600
							CHANNELS 3 Xrotation Yrotation Zrotation
							End Site
							{
								OFFSET 0 0 0
							}
						}
					}
				}
			}
		}
	}
	JOINT RightUpLeg_virtual
	{
		OFFSET 0.000000 0.000000 0.000000
		CHANNELS 3 Xrotation Yrotation Zrotation
		JOINT RightUpLeg
		{
			OFFSET -11.333700 -6.187798 -0.413800
			CHANNELS 3 Xrotation Yrotation Zrotation
			JOINT RightLeg
			{
				OFFSET -0.430392 -32.302628 3.733000
				CHANNELS 3 Xrotation Yrotation Zrotation
				JOINT RightFoot
				{
					OFFSET 0.430392 -48.264973 -6.423500
					CHANNELS 3 Xrotation Yrotation Zrotation
					JOINT RightToeBase
					{
						OFFSET -4.230900 -16.068199 23.438400
						CHANNELS 3 Xrotation Yrotation Zrotation
						JOINT RightToe_End
						{
							OFFSET -4.510700 0.695400 19.974600
							CHANNELS 3 Xrotation Yrotation Zrotation
							End Site
							{
								OFFSET 0 0 0
							}
						}
					}
				}
			}
		}
	}
	JOINT Spine_virtual
	{
		OFFSET 0.000000 0.000000 0.000000
		CHANNELS 3 Xrotation Yrotation Zrotation
		JOINT Spine
		{
			OFFSET -0.002400 12.777504 0.315300
			CHANNELS 3 Xrotation Yrotation Zrotation
			JOINT Spine1
			{
				OFFSET -0.002067 5.816869 0.032633
				CHANNELS 3 Xrotation Yrotation Zrotation
				JOINT Spine1_split
				{
					OFFSET -0.002067 5.816869 0.032633
					CHANNELS 3 Xrotation Yrotation Zrotation
					JOINT Spine2
					{
						OFFSET -0.002067 5.816869 0.032633
						CHANNELS 3 Xrotation Yrotation Zrotation
						JOINT Neck_virtual
						{
							OFFSET 0.000000 0.000000 0.000000
							CHANNELS 3 Xrotation Yrotation Zrotation
							JOINT Neck
							{
								OFFSET -0.003700 21.199493 -0.826900
								CHANNELS 3 Xrotation Yrotation Zrotation
								JOINT Head
								{
									OFFSET 0.000000 20.442200 4.834800
									CHANNELS 3 Xrotation Yrotation Zrotation
									JOINT HeadTop_End
									{
										OFFSET 0.000000 34.668396 4.968400
										CHANNELS 3 Xrotation Yrotation Zrotation
										End Site
										{
											OFFSET 0 0 0
										}
									}
								}
							}
						}
						JOINT LeftShoulder_virtual
						{
							OFFSET 0.000000 0.000000 0.000000
							CHANNELS 3 Xrotation Yrotation Zrotation
							JOINT LeftShoulder
							{
								OFFSET 3.288150 8.794197 -1.372250
								CHANNELS 3 Xrotation Yrotation Zrotation
								JOINT LeftShoulder_split
								{
									OFFSET 3.288150 8.794197 -1.372250
									CHANNELS 3 Xrotation Yrotation Zrotation
									JOINT LeftArm
									{
										OFFSET 11.953299 -2.279007 -0.146200
										CHANNELS 3 Xrotation Yrotation Zrotation
										JOINT LeftForeArm
										{
											OFFSET 18.448900 0.000000 0.000000
											CHANNELS 3 Xrotation Yrotation Zrotation
											JOINT LeftHand
											{
												OFFSET 29.527798 0.000000 0.000000
												CHANNELS 3 Xrotation Yrotation Zrotation
												End Site
												{
													OFFSET 0 0 0
												}
											}
										}
									}
								}
							}
						}
						JOINT RightShoulder_virtual
						{
							OFFSET 0.000000 0.000000 0.000000
							CHANNELS 3 Xrotation Yrotation Zrotation
							JOINT RightShoulder
							{
								OFFSET -3.249400 8.794197 -1.372250
								CHANNELS 3 Xrotation Yrotation Zrotation
								JOINT RightShoulder_split
								{
									OFFSET -3.249400 8.794197 -1.372250
									CHANNELS 3 Xrotation Yrotation Zrotation
									JOINT RightArm
									{
										OFFSET -11.953299 -2.279007 -0.146200
										CHANNELS 3 Xrotation Yrotation Zrotation
										JOINT RightForeArm
										{
											OFFSET -18.448900 0.000000 0.000000
											CHANNELS 3 Xrotation Yrotation Zrotation
											JOINT RightHand
											{
												OFFSET -29.527802 0.000000 0.000000
												CHANNELS 3 Xrotation Yrotation Zrotation
												End Site
												{
													OFFSET 0 0 0
												}
											}
										}
									}
								}
							}
						}
					}
				}
			}
		}
	}
}
MOTION
Frames: 4
Frame Time: 0.03333333
0.332141 101.122833 -0.847351 0.000000 0.000000 0.000000 5.033037 -28.938449 1.309374 -21.101620 16.855884 11.440723 20.959819 14.858744 -0.273145 0.847312 -4.649869 -4.276163 -0.031841 0.471353 -0.056903 0.000000 0.000000 0.000000 8.337793 -28.113134 2.064941 -9.733847 3.551271 -6.182369 11.002726 10.685336 0.071731 -5.153938 -2.596022 3.284111 2.534324 0.783595 -1.584721 0.000000 0.000000 0.000000 3.610989 -30.410611 -1.114776 7.260853 1.498998 -1.812918 0.238115 0.942722 2.756424 2.495521 1.855267 -0.182013 0.000000 0.000000 0.000000 0.793533 0.712624 4.113989 -2.364690 23.869693 -9.692383 -2.023571 11.009765 6.302841 0.000000 0.000000 0.000000 -0.109184 1.076950 2.835924 0.651810 -13.577975 1.791151 -2.569470 -0.950645 -3.079746 -56.288108 -1.139411 -34.818966 11.947003 -61.683070 14.912381 0.000000 0.000000 0.000000 1.189436 1.133108 3.550870 4.662586 3.534110 8.497312 1.390526 2.367691 -3.745550 -1.167568 -11.288292 65.235806 15.306932 32.148970 -3.443982 0.000000 0.000000 0.000000 
0.688632 100.936844 -1.514603 0.000000 0.000000 0.000000 5.111929 -28.374511 1.808910 -20.844537 16.055314 11.359860 20.635451 14.162375 -0.402245 1.127767 -4.865870 -3.975163 0.751888 0.435562 -0.274662 0.000000 0.000000 0.000000 7.940742 -27.111784 2.283870 -10.483858 2.871046 -6.929699 11.058316 10.552010 0.013984 -5.190994 -2.533127 2.263567 4.647029 0.734738 -1.335129 0.000000 0.000000 0.000000 3.473533 -30.762530 -0.706409 7.343514 1.265395 -1.495353 0.209836 0.683690 2.670518 1.456018 3.060951 -0.403410 0.000000 0.000000 0.000000 1.108809 0.399492 3.973873 -1.990052 23.553489 -9.556997 -2.672899 11.634793 5.601596 0.000000 0.000000 0.000000 -0.209914 0.899961 2.795318 0.409975 -12.592446 1.426962 -1.001846 -2.052739 -2.530891 -56.861243 -1.437609 -35.306218 12.889657 -62.381839 15.164868 0.000000 0.000000 0.000000 0.983345 0.769230 3.416242 4.327619 3.398997 7.731306 1.063077 1.565143 -2.846806 -1.488821 -10.379521 66.122570 14.514362 30.285031 -2.772838 0.000000 0.000000 0.000000 
0.995197 100.682365 -2.098110 0.000000 0.000000 0.000000 5.258656 -27.862001 2.424435 -20.762774 15.493581 11.577960 19.569096 13.935912 -0.579633 1.213618 -4.365967 -3.299767 1.584211 0.347248 -0.722645 0.000000 0.000000 0.000000 7.508982 -25.950264 2.557566 -12.306453 2.100150 -8.097929 12.243116 10.760837 -0.014661 -4.311941 -2.162189 2.241090 4.554537 0.607989 -1.346062 0.000000 0.000000 0.000000 3.594354 -31.055258 -0.123902 7.767029 0.970078 -0.545382 0.217571 0.359511 2.090490 0.797052 3.832750 -0.317989 0.000000 0.000000 0.000000 1.553727 0.053936 3.330145 -2.203823 22.824588 -10.005439 -4.249521 12.656542 4.415839 0.000000 0.000000 0.000000 -0.139831 0.738941 2.322757 0.127553 -11.167988 0.544535 0.416580 -3.052898 -1.443487 -56.554977 -1.292669 -35.527536 11.216596 -63.207868 12.940832 0.000000 0.000000 0.000000 0.803376 0.372668 2.791277 3.921159 3.508618 5.771252 0.403182 0.894361 -1.787165 -1.247187 -10.302064 68.407869 12.971030 27.861578 -1.496534 0.000000 0.000000 0.000000 
1.503549 100.332703 -2.579224 0.000000 0.000000 0.000000 5.424643 -27.860337 3.040752 -21.039704 14.971394 11.953062 18.572584 13.876990 -0.824023 0.935552 -3.578500 -2.751381 1.832272 0.223959 -1.124726 0.000000 0.000000 0.000000 7.102963 -25.315099 2.921109 -15.062196 1.425025 -9.430714 14.342994 11.201188 -0.064050 -3.239448 -1.625234 2.572662 3.010002 0.372476 -1.323585 0.000000 0.000000 0.000000 4.092923 -31.590892 0.647479 8.541648 0.679649 0.818050 0.271650 0.042205 1.128964 0.913023 4.103582 0.179432 0.000000 0.000000 0.000000 1.960655 -0.223472 2.263745 -2.808720 21.591177 -10.996301 -6.421723 13.811555 2.963834 0.000000 0.000000 0.000000 0.119529 0.591437 1.476338 -0.150002 -9.634807 -0.660417 1.621382 -3.671820 -0.311938 -55.620775 -0.290616 -34.759048 6.549596 -63.892868 8.005450 0.000000 0.000000 0.000000 0.693368 0.039549 1.756499 3.591311 3.656427 2.795357 -0.188179 0.278931 -0.815514 0.012467 -11.259083 71.889653 11.062759 26.473212 -0.019826 0.000000 0.000000 0.000000 
